# xmcd
#
# Track frame offsets:
#	150
#	16470
#	31685
#	47335
#	63410
#	79737
#	96122
#	111272
#	133160
#	148310
#	165960
#	180147
#	195897
#	212535
#	228597
#	242372
#	266152
#	286910
#	303260
#	319697
#	335310
#
# Disc length: 4697 seconds
#
# Revision: 5
# Processed by: cddbd v1.5.2PL0 Copyright (c) Steve Scherf et al.
# Submitted via: audiograbber 1.83.01
#
DISCID=11125715
DTITLE=Various Artist - Love Train (The Ultimate Sound Of Philadelphia) CD 2 o
DTITLE=f 2
DYEAR=1998
DGENRE=Soul - Funk - Disco
TTITLE0=McFadden and Whitehead - Ain't No Stoppin' Us Now
TTITLE1=Harold Melvin and The Blue Notes - If You Don't Know Me By Now
TTITLE2=The Jacksons - Show You The Way To Go
TTITLE3=The O'Jays - Brandy
TTITLE4=People's Choice - JAM, JAM, JAM (All Night Long)
TTITLE5=Lou Rawls - Lady Love
TTITLE6=Jean Carn - Was That All It Was
TTITLE7=Philadelphia International All Stars - Let's Clean Up The Ghetto
TTITLE8=The O'Jays - Use 'Ta Be My Girl
TTITLE9=Teddy Pendergrass - The Whole Town's Laughing At Me
TTITLE10=Archie Bell and The Drells - Soul City Walk
TTITLE11=The O'Jays - Put Our Heads Together
TTITLE12=The Jones Girls - Nights Over Egypt
TTITLE13=Teddy Pendergrass - Close The  Door
TTITLE14=Archie Bell and The Drells - Let's Groove
TTITLE15=Dexter Wansel - The Sweetest Pain
TTITLE16=Shirley Jones - Do You Get Enough Love
TTITLE17=Frantique - Strutt Your Funky Stuff
TTITLE18=Teddy Pendergrass - Love T.K.O.
TTITLE19=Billy Paul - Bring The Family Back
TTITLE20=Patti Labelle - If You Only Knew
EXTD=Copyright © 1998 Sony Music Entertainment Ltd. \nAll Rights Reserved. 
EXTT0=
EXTT1=
EXTT2=
EXTT3=
EXTT4=
EXTT5=
EXTT6=
EXTT7=
EXTT8=
EXTT9=
EXTT10=
EXTT11=
EXTT12=
EXTT13=
EXTT14=
EXTT15=
EXTT16=
EXTT17=
EXTT18=
EXTT19=
EXTT20=
PLAYORDER=
